<svg version="1.0" xmlns="http://www.w3.org/2000/svg" xmlns:xlink="http://www.w3.org/1999/xlink" viewBox="0 0 112.5 112.5">
	<g opacity="0.55">
		<rect fill="none" width="112.5" height="112.5"></rect>
		<svg width="112.5" height="112.5" >
			<svg xmlns="http://www.w3.org/2000/svg" viewBox="-0.001544952392578125 -0.001544952392578125 100.00201416015625 100.00308227539062" >
				<g fill-rule="evenodd">
					<path d="M36.27 2.25c7 7 14.07 15.76 21.91 21.78 3.51 2.69 7.47 4 12.71 1.23.06 0 .07-.39 0 0L59.22 36.94a9.71 9.71 0 0 1-13.67 0L24.34 15.72C15.83 7.21 28.91-5.11 36.27 2.25zm31.67-.72A10.49 10.49 0 1 0 78.43 12 10.49 10.49 0 0 0 67.94 1.53zM63.73 97.75c-7-7-14.07-15.76-21.91-21.78-3.51-2.69-7.47-4-12.71-1.23-.06 0-.06.4 0 0l11.67-11.68a9.7 9.7 0 0 1 13.66 0l21.22 21.22c8.51 8.51-4.57 20.83-11.93 13.47zm-31.67.73A10.5 10.5 0 1 0 21.57 88a10.49 10.49 0 0 0 10.49 10.48z" fill="#FF3C00"
					></path>
					<path d="M97.75 36.27c-7 7-15.76 14.07-21.78 21.91-2.69 3.51-4 7.47-1.23 12.71 0 .06.4.07 0 0L63.06 59.22a9.7 9.7 0 0 1 0-13.66l21.22-21.22c8.5-8.51 20.83 4.57 13.47 11.93zm.72 31.67A10.49 10.49 0 1 0 88 78.43a10.49 10.49 0 0 0 10.47-10.49zM2.25 63.73c7-7 15.76-14.07 21.78-21.91 2.69-3.51 4-7.47 1.23-12.71 0-.06-.4-.06 0 0l11.68 11.67a9.71 9.71 0 0 1 0 13.67L15.72 75.66C7.21 84.17-5.11 71.09 2.25 63.73zm-.73-31.67A10.5 10.5 0 1 0 12 21.57 10.49 10.49 0 0 0 1.52 32.06z" fill="#0DA858"
					></path>
				</g>
			</svg>
		</svg>
	</g>
	<g transform="translate(15,33.5)">
		<path transform="translate(0, 50)" d="M44.13 0L35.3 0Q34.38-2.67 33.41-5.27 32.44-7.87 31.53-10.6L31.53-10.6 12.54-10.6Q11.63-7.87 10.69-5.23 9.75-2.6 8.84 0L8.84 0 0.33 0Q2.86-7.21 5.13-13.33 7.41-19.44 9.59-24.89 11.77-30.36 13.91-35.3 16.05-40.23 18.33-45.05L18.33-45.05 26.07-45.05Q28.34-40.23 30.48-35.3 32.63-30.36 34.81-24.89 36.98-19.44 39.29-13.33 41.6-7.21 44.13 0L44.13 0ZM22.04-36.34L22.04-36.34Q20.54-32.89 18.62-27.95 16.71-23.01 14.63-17.23L14.63-17.23 29.45-17.23Q27.37-23.01 25.41-28.02 23.46-33.02 22.04-36.34ZM62.59-45.5L62.59-45.5Q72.41-45.5 77.64-41.93 82.88-38.35 82.88-30.75L82.88-30.75Q82.88-26.78 81.48-23.95 80.08-21.13 77.41-19.34 74.75-17.55 70.92-16.71 67.08-15.86 62.14-15.86L62.14-15.86 58.05-15.86 58.05 0 49.86 0 49.86-44.4Q52.72-45.05 56.19-45.27 59.67-45.5 62.59-45.5ZM63.18-38.41L63.18-38.41Q60.06-38.41 58.05-38.22L58.05-38.22 58.05-22.88 62.01-22.88Q67.92-22.88 71.11-24.54 74.3-26.2 74.3-30.81L74.3-30.81Q74.3-33.02 73.45-34.52 72.61-36.01 71.11-36.86 69.62-37.7 67.57-38.06 65.52-38.41 63.18-38.41Z"></path>
	</g>
</svg>